<?xml version="1.0" encoding="UTF-8"?>
<svg width="326px" height="86px" viewBox="0 0 326 86" version="1.1" xmlns="http://www.w3.org/2000/svg" xmlns:xlink="http://www.w3.org/1999/xlink">
    <title>Group 8</title>
    <defs>
        <radialGradient cx="50%" cy="50%" fx="50%" fy="50%" r="37.8909442%" gradientTransform="translate(0.500000,0.500000),scale(0.997744,1.000000),rotate(105.715400),translate(-0.500000,-0.500000)" id="radialGradient-1">
            <stop stop-color="#FFFFFF" offset="0%"></stop>
            <stop stop-color="#EEEEEE" offset="100%"></stop>
        </radialGradient>
        <radialGradient cx="36.7208017%" cy="40.4045113%" fx="36.7208017%" fy="40.4045113%" r="49.5967159%" gradientTransform="translate(0.367208,0.404045),scale(0.997744,1.000000),rotate(111.018870),translate(-0.367208,-0.404045)" id="radialGradient-2">
            <stop stop-color="#FFFFFF" offset="0%"></stop>
            <stop stop-color="#FF6D6D" offset="100%"></stop>
        </radialGradient>
        <ellipse id="path-3" cx="43.0972222" cy="43" rx="18.7379227" ry="18.6956522"></ellipse>
        <filter x="-70.7%" y="-49.5%" width="241.4%" height="241.7%" filterUnits="objectBoundingBox" id="filter-4">
            <feOffset dx="0" dy="8" in="SourceAlpha" result="shadowOffsetOuter1"></feOffset>
            <feGaussianBlur stdDeviation="7.5" in="shadowOffsetOuter1" result="shadowBlurOuter1"></feGaussianBlur>
            <feColorMatrix values="0 0 0 0 1   0 0 0 0 0.426893502   0 0 0 0 0.426629364  0 0 0 0.425533695 0" type="matrix" in="shadowBlurOuter1"></feColorMatrix>
        </filter>
        <filter id="filter-5">
            <feColorMatrix in="SourceGraphic" type="matrix" values="0 0 0 0 0.231373 0 0 0 0 0.231373 0 0 0 0 0.231373 0 0 0 1.000000 0"></feColorMatrix>
        </filter>
    </defs>
    <g id="Page-1" stroke="none" stroke-width="1" fill="none" fill-rule="evenodd">
        <g id="Sign-in" transform="translate(-60.000000, -208.000000)">
            <g id="Group-8" transform="translate(60.000000, 208.000000)">
                <g id="Group-3" transform="translate(106.000000, 5.000000)" fill="#3B3B3B">
                    <path d="M10.7337768,46.5300714 L10.7337768,30.5667686 C10.7337768,27.8076792 11.3651462,25.7285083 12.6278849,24.3292559 C13.8906236,22.9300034 15.5874287,22.2303772 17.7183003,22.2303772 C21.7432799,22.2303772 23.7557698,24.7332654 23.7557698,29.7390418 L23.7557698,29.7390418 L23.7557698,46.5300714 L32.9895466,46.5300714 L32.9895466,30.5667686 C32.9895466,27.8076792 33.6209159,25.7285083 34.8836546,24.3292559 C36.1463933,22.9300034 37.8629288,22.2303772 40.0332609,22.2303772 C41.9668296,22.2303772 43.4564666,22.8511723 44.5021721,24.0927625 C45.5478776,25.3343527 46.0707304,27.2164458 46.0707304,29.7390418 L46.0707304,29.7390418 L46.0707304,46.5300714 L55.3045072,46.5300714 L55.3045072,28.3200815 C55.3045072,23.6296296 54.1305548,20.1117907 51.78265,17.7665647 C49.4347452,15.4213388 46.2680333,14.2487258 42.2825143,14.2487258 C39.9148792,14.2487258 37.7346819,14.7020048 35.7419223,15.6085627 C33.7491628,16.5151206 32.1016834,17.7961264 30.7994841,19.45158 C29.6945877,17.7567108 28.2345461,16.4658512 26.4193592,15.579001 C24.6041723,14.6921509 22.5719522,14.2487258 20.3226989,14.2487258 C18.2707485,14.2487258 16.3865056,14.6034659 14.6699701,15.312946 C12.9534347,16.0224261 11.5032582,17.0472307 10.3194407,18.3873598 L10.3194407,18.3873598 L10.3194407,14.7217125 L1.5,14.7217125 L1.5,46.5300714 L10.7337768,46.5300714 Z M73.4169156,47.0030581 C78.1521857,47.0030581 81.3879537,45.5249745 83.1242194,42.5688073 L83.1242194,42.5688073 L83.1242194,46.5300714 L91.7660874,46.5300714 L91.7660874,28.3792049 C91.7660874,23.6493374 90.4441578,20.1117907 87.8002987,17.7665647 C85.1564395,15.4213388 81.3682234,14.2487258 76.4356503,14.2487258 C73.8707123,14.2487258 71.3748303,14.5837581 68.9480043,15.2538226 C66.5211784,15.9238872 64.4396325,16.8698607 62.7033668,18.0917431 L62.7033668,18.0917431 L66.0180559,24.5361876 C67.1624129,23.6296296 68.5533985,22.9102956 70.1910128,22.3781855 C71.828627,21.8460754 73.4958367,21.5800204 75.1926419,21.5800204 C77.6391981,21.5800204 79.4741153,22.1219844 80.6973934,23.2059123 C81.9206716,24.2898403 82.5323106,25.8369011 82.5323106,27.8470948 L82.5323106,27.8470948 L75.1926419,27.8470948 C70.5362929,27.8470948 67.0933569,28.6945294 64.8638338,30.3893986 C62.6343108,32.0842678 61.5195493,34.4097859 61.5195493,37.3659531 C61.5195493,39.2184845 61.9930763,40.8739382 62.9401303,42.332314 C63.8871844,43.7906898 65.2584397,44.9337411 67.0538963,45.7614679 C68.8493529,46.5891947 70.9703593,47.0030581 73.4169156,47.0030581 Z M75.7253598,40.795107 C74.1074758,40.795107 72.8348719,40.4502209 71.9075482,39.7604485 C70.9802245,39.0706762 70.5165626,38.1345566 70.5165626,36.9520897 C70.5165626,34.4689093 72.4106706,33.2273191 76.1988868,33.2273191 L76.1988868,33.2273191 L82.5323106,33.2273191 L82.5323106,36.479103 C82.019323,37.8980632 81.1511902,38.9721373 79.927912,39.7013252 C78.7046339,40.4305131 77.3037831,40.795107 75.7253598,40.795107 Z M109.345778,58 L109.345778,43.1600408 C111.673952,45.7220523 114.87026,47.0030581 118.9347,47.0030581 C121.894244,47.0030581 124.587429,46.3231397 127.014255,44.9633028 C129.441081,43.6034659 131.345054,41.6918111 132.726174,39.2283384 C134.107295,36.7648658 134.797855,33.8973836 134.797855,30.6258919 C134.797855,27.3544003 134.107295,24.4869181 132.726174,22.0234455 C131.345054,19.5599728 129.441081,17.648318 127.014255,16.2884811 C124.587429,14.9286442 121.894244,14.2487258 118.9347,14.2487258 C114.554575,14.2487258 111.220156,15.6282705 108.931442,18.3873598 L108.931442,18.3873598 L108.931442,14.7217125 L100.112001,14.7217125 L100.112001,58 L109.345778,58 Z M117.336546,39.4352701 C114.968911,39.4352701 113.025477,38.637105 111.506245,37.0407747 C109.987012,35.4444444 109.227396,33.3061502 109.227396,30.6258919 C109.227396,27.9456337 109.987012,25.8073394 111.506245,24.2110092 C113.025477,22.6146789 114.968911,21.8165138 117.336546,21.8165138 C119.704181,21.8165138 121.647615,22.6146789 123.166848,24.2110092 C124.68608,25.8073394 125.445696,27.9456337 125.445696,30.6258919 C125.445696,33.3061502 124.68608,35.4444444 123.166848,37.0407747 C121.647615,38.637105 119.704181,39.4352701 117.336546,39.4352701 Z M145.570595,10.2874618 C147.2674,10.2874618 148.64852,9.78491335 149.713956,8.77981651 C150.779392,7.77471967 151.31211,6.50356779 151.31211,4.96636086 C151.31211,3.54740061 150.779392,2.36493374 149.713956,1.41896024 C148.64852,0.472986748 147.2674,0 145.570595,0 C143.873789,0 142.492669,0.492694529 141.427233,1.47808359 C140.361797,2.46347265 139.82908,3.68535508 139.82908,5.14373089 C139.82908,6.60210669 140.361797,7.82398913 141.427233,8.80937819 C142.492669,9.79476724 143.873789,10.2874618 145.570595,10.2874618 Z M150.187483,46.5300714 L150.187483,14.7217125 L140.953706,14.7217125 L140.953706,46.5300714 L150.187483,46.5300714 Z M174.159788,47.0030581 C177.513938,47.0030581 180.443886,46.293578 182.949633,44.8746177 C185.455381,43.4556575 187.280433,41.4848794 188.42479,38.9622834 L188.42479,38.9622834 L181.262693,35.0601427 C179.644809,37.9768943 177.257444,39.4352701 174.100597,39.4352701 C171.693502,39.4352701 169.700742,38.6469589 168.122319,37.0703364 C166.543895,35.4937139 165.754684,33.3455657 165.754684,30.6258919 C165.754684,27.9062181 166.543895,25.75807 168.122319,24.1814475 C169.700742,22.604825 171.693502,21.8165138 174.100597,21.8165138 C177.217984,21.8165138 179.605349,23.2748896 181.262693,26.1916412 L181.262693,26.1916412 L188.42479,22.3486239 C187.280433,19.7471967 185.455381,17.7468569 182.949633,16.3476045 C180.443886,14.948352 177.513938,14.2487258 174.159788,14.2487258 C170.766178,14.2487258 167.717848,14.948352 165.014798,16.3476045 C162.311748,17.7468569 160.200606,19.6880734 158.681374,22.1712538 C157.162141,24.6544343 156.402525,27.472647 156.402525,30.6258919 C156.402525,33.7791369 157.162141,36.5973496 158.681374,39.0805301 C160.200606,41.5637105 162.311748,43.5049269 165.014798,44.9041794 C167.717848,46.3034319 170.766178,47.0030581 174.159788,47.0030581 Z M204.465517,47.0030581 C207.582903,47.0030581 210.276088,46.5793408 212.545072,45.7319062 C214.814056,44.8844716 216.540456,43.6921509 217.724274,42.1549439 C218.908091,40.617737 219.5,38.8637445 219.5,36.8929664 C219.5,34.5674482 218.888361,32.7543323 217.665083,31.4536188 C216.441805,30.1529052 215.001493,29.2562012 213.344149,28.7635066 C211.686804,28.2708121 209.555933,27.8076792 206.951534,27.3741081 C204.62336,27.019368 202.926554,26.6449201 201.861119,26.2507645 C200.795683,25.8566089 200.262965,25.1668366 200.262965,24.1814475 C200.262965,23.3143051 200.756222,22.604825 201.742737,22.0530071 C202.729252,21.5011893 204.209023,21.2252803 206.182053,21.2252803 C209.496742,21.2252803 212.554937,22.0135916 215.356639,23.5902141 L215.356639,23.5902141 L218.434564,17.0275229 C216.974523,16.1603806 215.12974,15.4804621 212.900217,14.9877676 C210.670694,14.4950731 208.431306,14.2487258 206.182053,14.2487258 C203.143588,14.2487258 200.509594,14.682297 198.280071,15.5494393 C196.050548,16.4165817 194.353742,17.6286103 193.189655,19.185525 C192.025568,20.7424397 191.443524,22.5259939 191.443524,24.5361876 C191.443524,26.9405369 192.065029,28.7930683 193.308037,30.0937819 C194.551045,31.3944954 196.020952,32.3010533 197.717757,32.8134557 C199.414562,33.325858 201.565164,33.7791369 204.169563,34.1732926 C206.379356,34.4492015 208.01697,34.7842338 209.082406,35.1783894 C210.147841,35.572545 210.680559,36.2229018 210.680559,37.1294597 C210.680559,39.0608223 208.72726,40.0265036 204.820663,40.0265036 C202.887094,40.0265036 200.914065,39.7407407 198.901575,39.1692151 C196.889085,38.5976894 195.17255,37.8586476 193.751969,36.9520897 L193.751969,36.9520897 L190.674043,43.5739042 C192.173545,44.5592932 194.186035,45.3771662 196.711512,46.0275229 C199.23699,46.6778797 201.821658,47.0030581 204.465517,47.0030581 Z" id="mapics" fill-rule="nonzero"></path>
                    <text id="Analytics-transparen" font-family="Montserrat-Regular, Montserrat" font-size="12" font-weight="normal" line-spacing="12">
                        <tspan x="0" y="75">Analytics transparentes y privados</tspan>
                    </text>
                </g>
                <g id="Group-2-Copy">
                    <ellipse id="Oval-Copy" fill="url(#radialGradient-1)" cx="43.0972222" cy="43" rx="42.4726248" ry="42.3768116"></ellipse>
                    <g id="Oval">
                        <use fill="black" fill-opacity="1" filter="url(#filter-4)" xlink:href="#path-3"></use>
                        <use fill="url(#radialGradient-2)" fill-rule="evenodd" xlink:href="#path-3"></use>
                    </g>
                    <g filter="url(#filter-5)" id="Group">
                        <g transform="translate(43.305489, 42.915623) rotate(-45.000000) translate(-43.305489, -42.915623) translate(12.805489, 12.915623)">
                            <path d="M2.49838969,20.5652174 C3.83639942,20.5652174 4.92874753,21.614647 4.99372179,22.9335575 L4.99677939,23.057971 L4.99677939,36.1449275 C4.99677939,37.5216373 3.87821222,38.6376812 2.49838969,38.6376812 C1.16037997,38.6376812 0.0680318534,37.5882515 0.00305759629,36.2693411 L-1.13686838e-13,36.1449275 L-1.13686838e-13,23.057971 C-1.13686838e-13,21.6812612 1.11856717,20.5652174 2.49838969,20.5652174 Z" id="Line" fill="#3B3B3B" fill-rule="nonzero"></path>
                            <path d="M58.0875604,20.5652174 C59.4255701,20.5652174 60.5179182,21.614647 60.5828925,22.9335575 L60.5859501,23.057971 L60.5859501,36.1449275 C60.5859501,37.5216373 59.4673829,38.6376812 58.0875604,38.6376812 C56.7495507,38.6376812 55.6572025,37.5882515 55.5922283,36.2693411 L55.5891707,36.1449275 L55.5891707,23.057971 C55.5891707,21.6812612 56.7077379,20.5652174 58.0875604,20.5652174 Z" id="Line-Copy-6" fill="#3B3B3B" fill-rule="nonzero"></path>
                            <path d="M11.5550523,7.85576923 C12.8930621,7.85576923 13.9854102,8.90519886 14.0503844,10.2241093 L14.053442,10.3485229 L14.053442,48.8543757 C14.053442,50.2310855 12.9348749,51.3471293 11.5550523,51.3471293 C10.2170426,51.3471293 9.12469449,50.2976997 9.05972024,48.9787892 L9.05666264,48.8543757 L9.05666264,10.3485229 C9.05666264,8.97181304 10.1752298,7.85576923 11.5550523,7.85576923 Z" id="Line-Copy" fill="#3B3B3B" fill-rule="nonzero"></path>
                            <path d="M49.0308977,7.85576923 C50.3689075,7.85576923 51.4612556,8.90519886 51.5262298,10.2241093 L51.5292874,10.3485229 L51.5292874,48.8543757 C51.5292874,50.2310855 50.4107203,51.3471293 49.0308977,51.3471293 C47.692888,51.3471293 46.6005399,50.2976997 46.5355656,48.9787892 L46.5325081,48.8543757 L46.5325081,10.3485229 C46.5325081,8.97181304 47.6510752,7.85576923 49.0308977,7.85576923 Z" id="Line-Copy-5" fill="#3B3B3B" fill-rule="nonzero"></path>
                            <path d="M20.9240137,2.18115942 C22.2620234,2.18115942 23.3543715,3.23058905 23.4193458,4.5494995 L23.4224034,4.67391304 L23.4224034,55.1521739 C23.4224034,56.5288837 22.3038362,57.6449275 20.9240137,57.6449275 C19.586004,57.6449275 18.4936558,56.5954979 18.4286816,55.2765875 L18.425624,55.1521739 L18.425624,4.67391304 C18.425624,3.29720323 19.5441912,2.18115942 20.9240137,2.18115942 Z" id="Line-Copy-2" fill="#3B3B3B" fill-rule="nonzero"></path>
                            <path d="M39.6619364,2.18115942 C40.9999461,2.18115942 42.0922942,3.23058905 42.1572685,4.5494995 L42.1603261,4.67391304 L42.1603261,55.1521739 C42.1603261,56.5288837 41.0417589,57.6449275 39.6619364,57.6449275 C38.3239267,57.6449275 37.2315786,56.5954979 37.1666043,55.2765875 L37.1635467,55.1521739 L37.1635467,4.67391304 C37.1635467,3.29720323 38.2821139,2.18115942 39.6619364,2.18115942 Z" id="Line-Copy-4" fill="#3B3B3B" fill-rule="nonzero"></path>
                            <path d="M30.292975,0 C31.6309848,0 32.7233329,1.04942963 32.7883071,2.36834008 L32.7913647,2.49275362 L32.7913647,57.3333333 C32.7913647,58.7100431 31.6727976,59.826087 30.292975,59.826087 C28.9549653,59.826087 27.8626172,58.7766573 27.7976429,57.4577469 L27.7945853,57.3333333 L27.7945853,2.49275362 C27.7945853,1.11604381 28.9131525,0 30.292975,0 Z" id="Line-Copy-3" fill="#3B3B3B" fill-rule="nonzero"></path>
                        </g>
                    </g>
                </g>
            </g>
        </g>
    </g>
</svg>