<?xml version="1.0" standalone="no"?>
<!DOCTYPE svg PUBLIC "-//W3C//DTD SVG 20010904//EN"
 "http://www.w3.org/TR/2001/REC-SVG-20010904/DTD/svg10.dtd">
<svg version="1.0" xmlns="http://www.w3.org/2000/svg"
 width="261.000000pt" height="261.000000pt" viewBox="0 0 261.000000 261.000000"
 preserveAspectRatio="xMidYMid meet">
<metadata>
Created by potrace 1.14, written by Peter Selinger 2001-2017
</metadata>
<g transform="translate(0.000000,261.000000) scale(0.100000,-0.100000)"
fill="#000000" stroke="none">
<path d="M1263 2548 c-44 -11 -73 -52 -73 -100 0 -44 0 -44 239 -284 69 -70
120 -124 114 -120 -21 12 -103 21 -193 21 l-85 0 -189 188 c-184 181 -191 187
-231 187 -50 0 -83 -22 -102 -67 -22 -54 -5 -87 99 -190 51 -50 113 -112 137
-136 l44 -46 -37 -15 c-21 -9 -58 -29 -83 -46 l-46 -31 -156 154 c-161 159
-191 178 -244 158 -51 -20 -83 -87 -63 -134 6 -15 79 -96 163 -180 l152 -153
-22 -24 c-12 -14 -28 -37 -36 -52 -8 -16 -18 -28 -22 -28 -5 0 -6 -6 -3 -13 3
-8 -2 -19 -10 -26 -13 -11 -36 7 -152 123 -75 75 -147 139 -160 142 -82 21
-157 -66 -125 -144 7 -15 90 -105 186 -201 l174 -173 -2 -79 c-1 -47 2 -79 8
-79 6 0 3 -5 -5 -10 -9 -6 -10 -10 -3 -10 6 0 11 -12 11 -28 -1 -15 2 -38 7
-52 4 -16 -52 33 -162 142 -92 92 -181 172 -197 178 -38 14 -89 -2 -116 -37
-21 -26 -27 -87 -11 -111 4 -7 179 -185 387 -394 208 -210 378 -386 376 -392
-2 -6 0 -8 4 -4 4 5 101 -85 215 -199 114 -113 214 -210 221 -214 24 -16 85
-9 111 11 35 27 50 83 34 121 -7 16 -51 69 -99 118 -49 49 -88 95 -88 101 0 6
-3 9 -7 7 -5 -3 -23 11 -42 31 -18 19 -26 32 -16 29 9 -4 21 -7 26 -7 6 0 7
-4 4 -10 -3 -6 -1 -10 4 -10 6 0 11 5 11 10 0 15 33 8 46 -9 8 -10 13 -11 18
-3 4 7 12 12 17 12 6 0 7 -5 3 -12 -5 -7 -3 -8 6 -3 8 5 40 9 71 11 49 1 61
-2 79 -21 12 -13 19 -28 16 -33 -3 -5 1 -9 9 -8 7 0 67 -51 132 -115 65 -64
128 -121 140 -128 72 -37 163 35 147 117 -4 19 -44 68 -115 143 -106 110 -109
113 -87 126 13 7 29 12 36 13 6 0 21 9 33 21 16 16 23 18 35 8 12 -10 13 -9 8
4 -3 10 2 20 16 27 18 10 22 9 27 -9 3 -11 8 -19 12 -16 4 2 28 -17 53 -43 25
-26 77 -77 116 -115 62 -60 74 -67 110 -67 81 0 133 87 94 156 -5 8 -63 70
-130 137 l-121 123 29 34 c17 19 30 40 30 45 0 6 9 25 21 44 l20 33 112 -109
c64 -63 123 -112 137 -115 68 -13 130 36 130 102 0 46 -4 51 -176 225 l-139
140 1 74 c0 41 -5 105 -11 142 l-12 68 92 -92 c175 -175 190 -187 233 -187 82
0 131 82 92 155 -6 11 -275 284 -599 608 -400 400 -597 590 -617 596 -16 4
-43 4 -61 -1z"/>
<path d="M1903 2435 c-49 -21 -75 -93 -51 -139 15 -29 396 -412 434 -436 38
-24 56 -25 101 -3 42 19 66 67 57 112 -5 22 -65 89 -226 250 -121 122 -225
221 -232 222 -6 0 -20 2 -31 4 -11 2 -34 -2 -52 -10z"/>
<path d="M1995 791 c-3 -5 0 -13 6 -17 7 -4 9 -3 5 4 -3 5 0 13 6 15 9 4 10 6
1 6 -6 1 -14 -3 -18 -8z"/>
<path d="M230 763 c-32 -12 -53 -47 -58 -94 l-5 -49 209 -211 c209 -211 263
-253 308 -240 68 20 106 94 76 150 -12 24 -417 429 -440 441 -20 11 -65 12
-90 3z"/>
<path d="M1770 572 c0 -5 7 -9 15 -9 8 0 12 4 9 9 -3 4 -9 8 -15 8 -5 0 -9 -4
-9 -8z"/>
<path d="M1810 549 c0 -5 5 -7 10 -4 6 3 10 8 10 11 0 2 -4 4 -10 4 -5 0 -10
-5 -10 -11z"/>
<path d="M1750 535 c0 -8 2 -15 4 -15 2 0 6 7 10 15 3 8 1 15 -4 15 -6 0 -10
-7 -10 -15z"/>
<path d="M1220 452 c0 -5 7 -9 15 -9 8 0 12 4 9 9 -3 4 -9 8 -15 8 -5 0 -9 -4
-9 -8z"/>
<path d="M1316 445 c-11 -8 -15 -15 -9 -15 6 0 16 7 23 15 16 19 11 19 -14 0z"/>
<path d="M1421 444 c0 -11 3 -14 6 -6 3 7 2 16 -1 19 -3 4 -6 -2 -5 -13z"/>
<path d="M1347 438 c-16 -12 -15 -13 7 -13 15 0 22 5 19 13 -3 6 -6 12 -7 12
-1 0 -10 -6 -19 -12z"/>
<path d="M1396 431 c-3 -5 1 -14 8 -20 10 -9 16 -9 21 -1 4 6 1 9 -7 8 -7 -2
-12 3 -10 10 2 14 -4 16 -12 3z"/>
<path d="M1257 419 c7 -7 15 -10 18 -7 3 3 -2 9 -12 12 -14 6 -15 5 -6 -5z"/>
<path d="M1293 400 c1 -21 10 -18 13 5 1 8 -2 15 -6 15 -5 0 -8 -9 -7 -20z"/>
<path d="M1341 406 c-9 -11 -9 -16 1 -22 7 -4 10 -4 6 1 -4 4 -3 14 3 22 6 7
9 13 6 13 -2 0 -10 -6 -16 -14z"/>
</g>
</svg>
