<?xml version="1.0" encoding="UTF-8"?>
<svg width="35px" height="30px" viewBox="0 0 35 30" version="1.1" xmlns="http://www.w3.org/2000/svg" xmlns:xlink="http://www.w3.org/1999/xlink">
    <title>server</title>
    <defs>
        <filter id="filter-1">
            <feColorMatrix in="SourceGraphic" type="matrix" values="0 0 0 0 1.000000 0 0 0 0 0.427451 0 0 0 0 0.427451 0 0 0 1.000000 0"></feColorMatrix>
        </filter>
    </defs>
    <g id="Page-1" stroke="none" stroke-width="1" fill="none" fill-rule="evenodd">
        <g id="server" transform="translate(-83.000000, -355.000000)" filter="url(#filter-1)">
            <g transform="translate(83.000000, 355.000000)">
                <path d="M0.511363636,4.28571429 C0.511363636,1.91877857 2.41924006,0 4.77272727,0 L30.3409091,0 C32.6944602,0 34.6022727,1.91877857 34.6022727,4.28571429 L34.6022727,8.57142857 C34.6022727,10.9383643 32.6944602,12.8571429 30.3409091,12.8571429 L4.77272727,12.8571429 C2.41924006,12.8571429 0.511363636,10.9383643 0.511363636,8.57142857 L0.511363636,4.28571429 Z M30.3409091,6.42857143 C30.3409091,7.61202857 29.3870028,8.57142857 28.2102273,8.57142857 C27.0334517,8.57142857 26.0795455,7.61202857 26.0795455,6.42857143 C26.0795455,5.24511429 27.0334517,4.28571429 28.2102273,4.28571429 C29.3870028,4.28571429 30.3409091,5.24511429 30.3409091,6.42857143 Z M0.511363636,21.4285714 C0.511363636,19.0615714 2.41924006,17.1428571 4.77272727,17.1428571 L30.3409091,17.1428571 C32.6944602,17.1428571 34.6022727,19.0615714 34.6022727,21.4285714 L34.6022727,25.7142857 C34.6022727,28.0812857 32.6944602,30 30.3409091,30 L4.77272727,30 C2.41924006,30 0.511363636,28.0812857 0.511363636,25.7142857 L0.511363636,21.4285714 Z M30.3409091,23.5714286 C30.3409091,24.7549286 29.3870028,25.7142857 28.2102273,25.7142857 C27.0334517,25.7142857 26.0795455,24.7549286 26.0795455,23.5714286 C26.0795455,22.3879286 27.0334517,21.4285714 28.2102273,21.4285714 C29.3870028,21.4285714 30.3409091,22.3879286 30.3409091,23.5714286 Z" id="Shape" fill="#374151"></path>
            </g>
        </g>
    </g>
</svg>